<?xml version="1.0" encoding="utf-8"?>
<!-- Generator: Adobe Illustrator 26.0.1, SVG Export Plug-In . SVG Version: 6.00 Build 0)  -->
<svg version="1.1" id="图层_1" xmlns="http://www.w3.org/2000/svg" xmlns:xlink="http://www.w3.org/1999/xlink" x="0px" y="0px"
	 viewBox="0 0 1024 1024" style="enable-background:new 0 0 1024 1024;" xml:space="preserve">
<style type="text/css">
	.st0{fill:#5AA554;}
	.st1{fill:#3E89BD;}
	.st2{fill:#3E8ABE;}
</style>
<g>
	<path class="st0" d="M442,744.1c-77.6,0-155.3,0-232.9,0c-14.5,0-22.7-10.1-19.2-24.1c22.7-90.9,97.5-153.8,185.1-163.9
		c64.5-7.4,120.2,12.4,168.5,54.6c3.6,3.1,5.7,3.9,9.7,0.2c23.7-21.9,50.7-38.4,81.6-47.9c59.7-18.5,116.8-12.3,170.9,19.2
		c15.9,9.3,17.4,12.6,14.7,30.8c-10.1,68.5-67.7,123.3-136.5,130c-6.3,0.6-12.6,0.8-19,0.8c-37.2,0-74.3,0-111.5,0
		c-37.2,0-74.3,0-111.5,0C442,744,442,744,442,744.1z M456.2,709.6C456.2,709.5,456.2,709.5,456.2,709.6c70.7-0.1,141.3-0.2,212,0
		c18.7,0,36.5-3.9,53.1-12.3c33.8-17,55.3-44,63.8-81.1c0.7-2.9,1.3-5.5-2.4-7.5c-37.1-20-76.2-26.2-117.5-18c-3,0.6-4.4,2-5.4,4.9
		c-4.6,14.2-10.1,28.3-14.1,42.6c-7.7,27.1-34.2,40.7-56.8,40.7c-22.3-0.1-39.1-10.3-53.3-27c-28.7-33.7-65.1-55.3-109.2-60.7
		c-74.1-9.1-133.6,17.1-177.2,78.1c-7.8,10.9-13.6,22.8-18.7,35.1c-1.5,3.6-1.5,5.7,3.3,5.2c1.5-0.2,3,0,4.5,0
		C310.9,709.6,383.6,709.6,456.2,709.6z M619.4,606.4c-17,8.2-32.5,18.7-46.1,31.7c-1.4,1.4-0.9,2,0.5,3c11.2,8.4,31.7,3.6,37.6-9.3
		C615.1,623.9,617.6,615.4,619.4,606.4z"/>
	<path class="st1" d="M184.2,532.1c1.6-48.5,22.4-85.9,65-110c22.9-13,47.9-16.7,73.9-12.2c3.8,0.7,5-0.5,6.5-3.8
		c25.1-56.1,67.5-91.6,128.3-102.2c62-10.8,114.8,8.7,157.5,54.6c16.9,18.2,28.3,39.8,35.5,63.5c1.3,4.4,3.1,6.1,7.5,5.4
		c3.7-0.6,5.2,0.4,3.7,4.6c-3.1,9-5.8,18-8.5,27.1c-0.9,3.1-2.7,4.7-5.6,5.8c-11.2,4.1-22.7-1.5-25.1-13.2
		c-4.4-21.1-10.9-41.2-24-58.6c-30.3-40.4-70.5-60.5-121.3-57c-45.2,3.1-80.1,24.4-105.2,61.9c-7.1,10.5-11.8,22.3-15.1,34.5
		c-3.9,14.3-11.9,19.1-26.2,14.4c-53-17.2-105.6,19.1-111.9,73.8c-3.3,28.2,4.7,52.6,25,72.7c2.1,2,2.6,3.3,0.3,5.6
		c-6.5,6.5-12.8,13.1-18.9,19.9c-2.3,2.5-3.5,1.1-5.2-0.4c-12.8-11.5-21.4-25.7-27.7-41.6C186.9,562.7,184.3,547.7,184.2,532.1z"/>
	<path class="st2" d="M839.8,347.1c-0.1,19-6.9,35-21.2,47.7c-3.2,2.9-4.7,6.6-4.8,11.1c-0.3,11.4-6.7,17.7-17.3,17.5
		c-10.2-0.2-16.7-7.3-17.1-18.2c-0.4-12.7,3.7-23.5,13.1-32.2c6.5-6,11.2-13,12.6-22.1c2.4-16.2-8.1-32.1-24-35.8
		c-16.4-3.8-31.9,5.6-37,21.7c-12.1,38.5-24.7,76.9-37,115.3c-8.7,27.1-17.2,54.2-25.7,81.3c-1.1,3.4-2.7,5.1-6.5,5.5
		c-9.8,1-19.5,2.6-29,5.2c-4.2,1.1-3.6-0.5-2.7-3.3c6.2-19.3,12.4-38.6,18.6-58c16.7-52.3,33.4-104.6,50.1-156.9
		c9.3-29.2,34.2-47,64.9-46.3c32,0.8,60.3,27.9,62.5,59.7C839.5,342.2,839.6,344.7,839.8,347.1z"/>
	<path class="st2" d="M821.3,566.9c-0.2,2.1,1.8,5.1-0.2,6.4c-1.9,1.1-3.9-1.7-5.8-2.9c-8.5-5.2-17.1-10.4-26.4-14
		c-3.5-1.4-4.6-3.8-5.5-7c-5.6-20.6-16.2-38.2-31.4-53.1c-8.9-8.8-19-16.2-30.5-21.4c-3.6-1.6-4.1-3.3-2.9-6.8
		c2.7-7.7,5.1-15.5,7.4-23.3c1.2-4,2.8-4.8,6.7-3c34,15.8,58.7,41,74.7,74.6C815.8,534,820.1,550.2,821.3,566.9z"/>
</g>
</svg>
