<svg xmlns="http://www.w3.org/2000/svg" viewBox="0 0 443 307">
  <path d="M 313.00 173.50 L 305.50 172.00 L 307.50 163.00 L 341.50 66.00 L 349.50 38.00 L 357.50 23.00 L 370.00 10.50 L 384.00 4.50 L 404.00 4.50 L 418.00 10.50 L 430.50 24.00 L 435.50 35.00 L 437.50 46.00 L 437.50 53.00 L 433.50 65.00 L 427.50 76.00 L 421.50 82.00 L 418.50 92.00 L 411.00 98.50 L 405.00 98.50 L 397.50 93.00 L 395.50 87.00 L 396.50 76.00 L 399.50 70.00 L 412.50 54.00 L 412.50 43.00 L 409.50 36.00 L 404.00 30.50 L 399.00 28.50 L 388.00 28.50 L 382.00 31.50 L 374.50 41.00 L 332.50 167.00 L 328.00 171.50 L 313.00 173.50 Z M 31.00 222.50 L 16.50 208.00 L 8.50 191.00 L 5.50 180.00 L 5.50 149.00 L 13.50 126.00 L 32.00 103.50 L 58.00 88.50 L 74.00 84.50 L 99.00 84.50 L 111.50 63.00 L 124.00 48.50 L 139.00 36.50 L 160.00 24.50 L 183.00 17.50 L 215.00 15.50 L 238.00 20.50 L 256.00 27.50 L 275.00 39.50 L 292.50 57.00 L 303.50 73.00 L 312.50 95.00 L 320.50 101.00 L 314.50 120.00 L 310.00 124.50 L 299.00 123.50 L 292.50 116.00 L 288.50 99.00 L 280.50 82.00 L 266.50 64.00 L 256.00 55.50 L 242.00 47.50 L 223.00 40.50 L 201.00 39.50 L 173.00 44.50 L 156.00 53.50 L 134.50 73.00 L 122.50 92.00 L 117.50 108.00 L 113.00 111.50 L 106.00 112.50 L 89.00 108.50 L 71.00 109.50 L 57.00 115.50 L 40.50 129.00 L 30.50 149.00 L 28.50 166.00 L 30.50 182.00 L 40.50 200.00 L 44.50 204.00 L 45.50 209.00 L 31.00 222.50 Z M 420.00 191.50 L 398.00 182.50 L 389.50 161.00 L 384.50 153.00 L 371.00 139.50 L 354.50 128.00 L 357.50 115.00 L 363.00 107.50 L 366.00 107.50 L 380.00 115.50 L 401.50 136.00 L 410.50 150.00 L 417.50 166.00 L 421.50 182.00 L 421.50 190.00 L 420.00 191.50 Z" fill="#3F92C3" fill-rule="evenodd"/>
  <path d="M 335.00 301.50 L 17.00 301.50 L 8.50 295.00 L 8.50 285.00 L 20.50 254.00 L 32.50 236.00 L 47.00 219.50 L 81.00 194.50 L 118.00 181.50 L 133.00 179.50 L 158.00 179.50 L 184.00 183.50 L 219.00 198.50 L 244.00 217.50 L 270.00 198.50 L 286.00 190.50 L 310.00 182.50 L 332.00 179.50 L 356.00 179.50 L 382.00 184.50 L 401.00 191.50 L 415.00 200.50 L 421.50 209.00 L 420.50 218.00 L 413.50 241.00 L 401.50 261.00 L 385.00 278.50 L 378.00 283.50 L 354.00 296.50 L 335.00 301.50 Z M 327.50 279.00 L 353.00 272.50 L 372.00 259.50 L 384.50 247.00 L 390.50 237.00 L 396.50 217.00 L 387.00 210.50 L 358.00 202.50 L 342.00 201.50 L 320.00 204.50 L 315.50 210.00 L 307.50 237.00 L 295.00 251.50 L 281.00 259.50 L 263.00 260.50 L 250.00 255.50 L 213.00 221.50 L 190.00 209.50 L 165.00 202.50 L 131.00 202.50 L 105.00 208.50 L 88.00 216.50 L 75.00 225.50 L 55.50 243.00 L 45.50 257.00 L 36.50 276.00 L 42.00 279.50 L 327.50 279.00 Z M 271.50 237.00 L 280.00 234.50 L 286.50 228.00 L 287.50 219.00 L 285.00 216.50 L 276.00 221.50 L 262.50 233.00 L 266.00 236.50 L 271.50 237.00 Z" fill="#59A959" fill-rule="evenodd"/>
</svg>